<?xml version="1.0" encoding="utf-8"?>
<!-- Generator: Adobe Illustrator 15.0.0, SVG Export Plug-In . SVG Version: 6.00 Build 0)  -->
<!DOCTYPE svg PUBLIC "-//W3C//DTD SVG 1.1//EN" "http://www.w3.org/Graphics/SVG/1.1/DTD/svg11.dtd">
<svg version="1.1" id="Layer_1" xmlns="http://www.w3.org/2000/svg" xmlns:xlink="http://www.w3.org/1999/xlink" x="0px" y="0px"
	 width="147.402px" height="65.197px" viewBox="0 0 147.402 65.197" enable-background="new 0 0 147.402 65.197"
	 xml:space="preserve">
<rect x="2.888" y="3.039" fill="#EC1C24" width="141.729" height="36.165"/>
<path fill="#FFFFFF" d="M2.886,8.307h7.613v0.952H2.886V8.307z M2.886,14.381h7.613v0.954H2.886V14.381z M2.886,20.619h7.613v0.952
	H2.886V20.619z M2.886,26.938h7.613v0.952H2.886V26.938z M2.886,33.032h7.613v0.952H2.886V33.032z"/>
<path fill="#FFFFFF" d="M137.001,8.307h7.613v0.952h-7.613V8.307z M137.001,14.381h7.613v0.954h-7.613V14.381z M137.001,20.619
	h7.613v0.952h-7.613V20.619z M137.001,26.938h7.613v0.952h-7.613V26.938z M137.001,33.032h7.613v0.952h-7.613V33.032z"/>
<path fill="#FFFFFF" d="M128.835,33.987l5.482-25.788h-7.144l-5.482,25.788H128.835z M102.678,23.951h6.895l-1.007-10.716h-0.107
	L102.678,23.951z M97.045,33.987h-7.143l15.661-25.788h8.718l4.696,25.788h-8.073l-0.644-5.036H99.796L97.045,33.987z
	 M62.115,33.987h6.429l4.196-19.751h0.072l4.554,19.751h9.894l5.482-25.788h-6.428l-4.071,19.146l-0.085,0.071l-4.56-19.216h-10
	L62.115,33.987z M58.079,33.987H38.433l5.482-25.788h19.646l-1.065,5H49.994l-1.13,5.322h11.501l-1.061,5H47.803l-1.161,5.466
	h12.502L58.079,33.987z M37.416,15.772c1.744-6.216-3.316-8.108-8.638-8.108c-5.394,0-11.108,1.679-12.692,7.786
	c-0.59,2.787,0.191,5.144,2.555,6.287c5.083,2.465,10.53,1.716,9.786,5.215c-0.363,1.714-2.649,2.571-4.297,2.571
	c-2.573,0-4.073-1.322-3.525-3.75H13.46c-1.381,7,3.536,8.756,9.537,8.756c5.965,0,11.871-2.577,13.026-8.006
	c1.477-6.966-4.715-7.395-8.805-8.501c-1.786-0.5-3.94-1.108-3.542-3c0.273-1.285,1.928-2.357,3.571-2.357
	c1.215,0,2.084,0.287,2.579,0.821c0.528,0.536,0.69,1.287,0.445,2.287H37.416z"/>
<path fill="#FFFFFF" d="M120.341,54.695c-0.077,0.377-0.142,0.743-0.194,1.102s-0.079,0.701-0.079,1.025
	c0,0.923,0.209,1.66,0.626,2.207s1.122,0.82,2.108,0.82c1.354,0,2.388-0.486,3.097-1.456s1.188-2.02,1.436-3.153
	c0.247-1.133,0.371-2.025,0.371-2.676c0-0.911-0.209-1.645-0.626-2.195c-0.415-0.555-1.112-0.832-2.088-0.832
	c-1.341,0-2.374,0.489-3.097,1.464C121.171,51.979,120.655,53.209,120.341,54.695 M117.121,54.695
	c0.468-2.201,1.412-3.976,2.83-5.324c1.422-1.348,3.257-2.02,5.509-2.02c1.822,0,3.188,0.466,4.091,1.396
	c0.907,0.932,1.359,2.189,1.359,3.779c0,0.676-0.156,1.756-0.468,3.242c-0.314,1.482-1.184,2.9-2.609,4.247
	s-3.259,2.021-5.498,2.021c-1.835,0-3.202-0.462-4.102-1.386c-0.897-0.925-1.349-2.181-1.349-3.771
	C116.884,56.192,116.963,55.463,117.121,54.695 M105.283,61.745h9.141l0.51-2.345h-6.112l2.479-11.758h-3.028L105.283,61.745z
	 M105.441,47.643l-1.876,8.829c-0.376,1.784-1.239,3.157-2.588,4.119c-1.347,0.964-2.912,1.446-4.697,1.446
	c-1.537,0-2.771-0.358-3.702-1.073c-0.93-0.717-1.396-1.752-1.396-3.105c0-0.404,0.053-0.866,0.156-1.387l1.876-8.829h3.027
	l-1.622,7.656c-0.026,0.156-0.087,0.488-0.185,0.996c-0.097,0.509-0.147,0.956-0.147,1.35c0,0.715,0.18,1.262,0.538,1.64
	c0.358,0.377,0.999,0.565,1.923,0.565c1.34,0,2.27-0.375,2.784-1.124c0.513-0.747,0.934-1.892,1.26-3.427l1.62-7.656H105.441z
	 M84.796,56.413h-4.044l3.378-6.016L84.796,56.413z M74.893,61.745h2.89l1.699-2.989h5.586l0.373,2.989h3.046l-1.914-14.103H82.98
	L74.893,61.745z M68.664,54.011h0.713h0.751c0.77,0,1.388-0.134,1.855-0.401c0.469-0.265,0.759-0.66,0.87-1.183
	c0.11-0.521,0.167-0.891,0.167-1.111c0-0.547-0.184-0.912-0.546-1.096c-0.365-0.181-0.874-0.273-1.524-0.273h-0.722h-0.725
	L68.664,54.011z M63.977,61.745l2.987-14.103h4.357c1.562,0,2.782,0.228,3.66,0.683c0.88,0.456,1.317,1.282,1.317,2.481
	c0,0.379-0.093,0.996-0.281,1.855c-0.19,0.86-0.79,1.685-1.806,2.471c-1.017,0.788-2.299,1.183-3.848,1.183h-2.206l-1.154,5.43
	H63.977z M47.628,54.695c-0.079,0.377-0.143,0.743-0.195,1.102c-0.052,0.358-0.079,0.701-0.079,1.025
	c0,0.923,0.207,1.66,0.624,2.207c0.417,0.547,1.122,0.82,2.11,0.82c1.353,0,2.386-0.486,3.097-1.456
	c0.709-0.97,1.187-2.02,1.434-3.153c0.248-1.133,0.371-2.025,0.371-2.676c0-0.911-0.207-1.645-0.625-2.195
	c-0.417-0.555-1.113-0.832-2.088-0.832c-1.342,0-2.374,0.489-3.096,1.464C48.458,51.979,47.94,53.209,47.628,54.695 M44.406,54.695
	c0.468-2.201,1.414-3.976,2.832-5.324c1.42-1.348,3.255-2.02,5.509-2.02c1.822,0,3.186,0.466,4.091,1.396
	c0.905,0.932,1.358,2.189,1.358,3.779c0,0.676-0.157,1.756-0.469,3.242c-0.312,1.482-1.183,2.9-2.609,4.247
	c-1.426,1.347-3.259,2.021-5.499,2.021c-1.835,0-3.202-0.462-4.099-1.386c-0.899-0.925-1.35-2.181-1.35-3.771
	C44.17,56.192,44.249,55.463,44.406,54.695 M34.21,45.865c0.247-0.665,0.615-1.228,1.104-1.689c0.488-0.462,1.051-0.692,1.689-0.692
	c0.273,0,0.494,0.026,0.662,0.076c0.17,0.053,0.451,0.164,0.842,0.333c0.39,0.17,0.626,0.267,0.712,0.293
	c0.085,0.026,0.23,0.041,0.44,0.041c0.233,0,0.432-0.083,0.594-0.245c0.164-0.164,0.31-0.377,0.44-0.634h0.996
	c-0.194,0.676-0.526,1.235-0.996,1.679c-0.469,0.441-1.035,0.662-1.7,0.662c-0.259,0-0.474-0.028-0.644-0.087
	c-0.17-0.059-0.422-0.16-0.761-0.302c-0.338-0.144-0.571-0.233-0.693-0.264c-0.124-0.032-0.27-0.051-0.441-0.051
	c-0.221,0-0.424,0.055-0.614,0.166c-0.189,0.114-0.4,0.349-0.635,0.714H34.21z M38.135,56.413h-4.042l3.378-6.016L38.135,56.413z
	 M28.234,61.745h2.89l1.7-2.989h5.585l0.371,2.989h3.048l-1.914-14.103h-3.595L28.234,61.745z M25.967,51.783
	c0.026-0.221,0.041-0.377,0.041-0.477c0-1.181-0.645-1.77-1.935-1.77c-0.625,0-1.19,0.155-1.699,0.468
	c-0.507,0.313-0.8,0.656-0.879,1.026c-0.077,0.371-0.117,0.628-0.117,0.771c0,0.482,0.173,0.811,0.518,0.986
	c0.345,0.177,1.085,0.409,2.217,0.703c1.133,0.294,2.087,0.644,2.86,1.053c0.776,0.414,1.163,1.104,1.163,2.082v0.409
	c-0.038,0.145-0.146,0.635-0.323,1.465c-0.174,0.834-0.934,1.632-2.274,2.394c-1.34,0.762-2.858,1.143-4.551,1.143
	c-1.458,0-2.588-0.259-3.388-0.782c-0.801-0.519-1.201-1.367-1.201-2.537c0-0.247,0.013-0.477,0.039-0.685
	c0.026-0.209,0.078-0.475,0.157-0.8h3.085c-0.09,0.285-0.136,0.579-0.136,0.879c0,0.532,0.169,0.958,0.507,1.27
	c0.339,0.312,0.821,0.468,1.445,0.468c0.756,0,1.442-0.142,2.061-0.43c0.619-0.285,0.971-0.646,1.055-1.075
	c0.085-0.427,0.128-0.674,0.128-0.741c0-0.443-0.13-0.745-0.392-0.907c-0.26-0.164-1.104-0.438-2.529-0.822
	c-1.426-0.383-2.418-0.841-2.979-1.377c-0.559-0.533-0.84-1.15-0.84-1.855v-0.243c0-0.071,0.095-0.534,0.284-1.388
	c0.189-0.853,0.945-1.677,2.266-2.471c1.321-0.794,2.784-1.188,4.385-1.188c1.224,0,2.207,0.291,2.948,0.881
	c0.743,0.587,1.114,1.432,1.114,2.527c0,0.32-0.039,0.662-0.118,1.023H25.967z"/>
</svg>
